<mxfile host="app.diagrams.net" agent="Mozilla/5.0 (Windows NT 10.0; Win64; x64) AppleWebKit/537.36 (KHTML, like Gecko) Chrome/129.0.0.0 Safari/537.36" version="24.7.15">
  <diagram name="Page-1" id="TQy8GUBidsC40Qf8uAbd">
    <mxGraphModel dx="4565" dy="3400" grid="1" gridSize="10" guides="1" tooltips="1" connect="1" arrows="1" fold="1" page="1" pageScale="1" pageWidth="850" pageHeight="1100" math="0" shadow="0">
      <root>
        <mxCell id="0" />
        <mxCell id="1" parent="0" />
        <mxCell id="Koqa_a8wpF1dFrQe2JMi-1" value="start" style="ellipse;whiteSpace=wrap;html=1;" vertex="1" parent="1">
          <mxGeometry x="527.5" y="-210" width="50" height="40" as="geometry" />
        </mxCell>
        <mxCell id="Koqa_a8wpF1dFrQe2JMi-2" value="please choose category 1 or 2" style="shape=parallelogram;perimeter=parallelogramPerimeter;whiteSpace=wrap;html=1;fixedSize=1;" vertex="1" parent="1">
          <mxGeometry x="492.5" y="70" width="120" height="60" as="geometry" />
        </mxCell>
        <mxCell id="Koqa_a8wpF1dFrQe2JMi-5" value="If category 1" style="rhombus;whiteSpace=wrap;html=1;" vertex="1" parent="1">
          <mxGeometry x="480" y="180" width="145" height="120" as="geometry" />
        </mxCell>
        <mxCell id="Koqa_a8wpF1dFrQe2JMi-6" value="" style="edgeStyle=orthogonalEdgeStyle;rounded=0;orthogonalLoop=1;jettySize=auto;html=1;" edge="1" parent="1" source="Koqa_a8wpF1dFrQe2JMi-2" target="Koqa_a8wpF1dFrQe2JMi-5">
          <mxGeometry relative="1" as="geometry" />
        </mxCell>
        <mxCell id="Koqa_a8wpF1dFrQe2JMi-9" value="" style="edgeStyle=orthogonalEdgeStyle;rounded=0;orthogonalLoop=1;jettySize=auto;html=1;" edge="1" parent="1" source="Koqa_a8wpF1dFrQe2JMi-5">
          <mxGeometry relative="1" as="geometry">
            <mxPoint x="170" y="310" as="targetPoint" />
          </mxGeometry>
        </mxCell>
        <mxCell id="Koqa_a8wpF1dFrQe2JMi-10" value="yes" style="text;html=1;align=center;verticalAlign=middle;resizable=0;points=[];autosize=1;strokeColor=none;fillColor=none;" vertex="1" parent="1">
          <mxGeometry x="190" y="208" width="40" height="30" as="geometry" />
        </mxCell>
        <mxCell id="Koqa_a8wpF1dFrQe2JMi-11" value="please choose level&lt;div&gt;100, 200, or 300&lt;/div&gt;" style="shape=parallelogram;perimeter=parallelogramPerimeter;whiteSpace=wrap;html=1;fixedSize=1;" vertex="1" parent="1">
          <mxGeometry x="90" y="310" width="160" height="70" as="geometry" />
        </mxCell>
        <mxCell id="Koqa_a8wpF1dFrQe2JMi-304" value="if level 100" style="rhombus;whiteSpace=wrap;html=1;" vertex="1" parent="1">
          <mxGeometry x="92.5" y="420" width="155" height="150" as="geometry" />
        </mxCell>
        <mxCell id="Koqa_a8wpF1dFrQe2JMi-305" value="" style="edgeStyle=orthogonalEdgeStyle;rounded=0;orthogonalLoop=1;jettySize=auto;html=1;" edge="1" parent="1" source="Koqa_a8wpF1dFrQe2JMi-11" target="Koqa_a8wpF1dFrQe2JMi-304">
          <mxGeometry relative="1" as="geometry" />
        </mxCell>
        <mxCell id="Koqa_a8wpF1dFrQe2JMi-307" value="&quot;This country has the Statue of Liberty&quot;" style="shape=parallelogram;perimeter=parallelogramPerimeter;whiteSpace=wrap;html=1;fixedSize=1;" vertex="1" parent="1">
          <mxGeometry x="-102.51" y="580" width="192.5" height="70" as="geometry" />
        </mxCell>
        <mxCell id="Koqa_a8wpF1dFrQe2JMi-308" value="" style="edgeStyle=orthogonalEdgeStyle;rounded=0;orthogonalLoop=1;jettySize=auto;html=1;" edge="1" parent="1" source="Koqa_a8wpF1dFrQe2JMi-304" target="Koqa_a8wpF1dFrQe2JMi-307">
          <mxGeometry relative="1" as="geometry" />
        </mxCell>
        <mxCell id="Koqa_a8wpF1dFrQe2JMi-309" value="yes" style="text;html=1;align=center;verticalAlign=middle;resizable=0;points=[];autosize=1;strokeColor=none;fillColor=none;" vertex="1" parent="1">
          <mxGeometry x="20" y="460" width="40" height="30" as="geometry" />
        </mxCell>
        <mxCell id="Koqa_a8wpF1dFrQe2JMi-311" value="if USA" style="rhombus;whiteSpace=wrap;html=1;" vertex="1" parent="1">
          <mxGeometry x="-61.88" y="840" width="111.25" height="110" as="geometry" />
        </mxCell>
        <mxCell id="Koqa_a8wpF1dFrQe2JMi-313" value="correct" style="shape=parallelogram;perimeter=parallelogramPerimeter;whiteSpace=wrap;html=1;fixedSize=1;" vertex="1" parent="1">
          <mxGeometry x="-280" y="970" width="181.87" height="70" as="geometry" />
        </mxCell>
        <mxCell id="Koqa_a8wpF1dFrQe2JMi-314" value="" style="edgeStyle=orthogonalEdgeStyle;rounded=0;orthogonalLoop=1;jettySize=auto;html=1;" edge="1" parent="1" source="Koqa_a8wpF1dFrQe2JMi-311" target="Koqa_a8wpF1dFrQe2JMi-313">
          <mxGeometry relative="1" as="geometry" />
        </mxCell>
        <mxCell id="Koqa_a8wpF1dFrQe2JMi-316" value="incorrect" style="shape=parallelogram;perimeter=parallelogramPerimeter;whiteSpace=wrap;html=1;fixedSize=1;" vertex="1" parent="1">
          <mxGeometry x="80" y="970" width="180" height="70" as="geometry" />
        </mxCell>
        <mxCell id="Koqa_a8wpF1dFrQe2JMi-317" value="" style="edgeStyle=orthogonalEdgeStyle;rounded=0;orthogonalLoop=1;jettySize=auto;html=1;" edge="1" parent="1" source="Koqa_a8wpF1dFrQe2JMi-311" target="Koqa_a8wpF1dFrQe2JMi-316">
          <mxGeometry relative="1" as="geometry" />
        </mxCell>
        <mxCell id="Koqa_a8wpF1dFrQe2JMi-318" value="yes" style="text;html=1;align=center;verticalAlign=middle;resizable=0;points=[];autosize=1;strokeColor=none;fillColor=none;" vertex="1" parent="1">
          <mxGeometry x="-128.13" y="870" width="40" height="30" as="geometry" />
        </mxCell>
        <mxCell id="Koqa_a8wpF1dFrQe2JMi-319" value="no" style="text;html=1;align=center;verticalAlign=middle;resizable=0;points=[];autosize=1;strokeColor=none;fillColor=none;" vertex="1" parent="1">
          <mxGeometry x="89.99" y="870" width="40" height="30" as="geometry" />
        </mxCell>
        <mxCell id="Koqa_a8wpF1dFrQe2JMi-320" value="&quot;please enter answer&quot;" style="shape=parallelogram;perimeter=parallelogramPerimeter;whiteSpace=wrap;html=1;fixedSize=1;" vertex="1" parent="1">
          <mxGeometry x="-76.26" y="710" width="140" height="70" as="geometry" />
        </mxCell>
        <mxCell id="Koqa_a8wpF1dFrQe2JMi-321" value="" style="edgeStyle=orthogonalEdgeStyle;rounded=0;orthogonalLoop=1;jettySize=auto;html=1;" edge="1" parent="1" source="Koqa_a8wpF1dFrQe2JMi-307" target="Koqa_a8wpF1dFrQe2JMi-320">
          <mxGeometry relative="1" as="geometry" />
        </mxCell>
        <mxCell id="Koqa_a8wpF1dFrQe2JMi-322" value="" style="endArrow=classic;html=1;rounded=0;" edge="1" parent="1">
          <mxGeometry width="50" height="50" relative="1" as="geometry">
            <mxPoint x="-7" y="780" as="sourcePoint" />
            <mxPoint x="-6.969999999999999" y="840" as="targetPoint" />
            <Array as="points">
              <mxPoint x="-6.969999999999999" y="800" />
            </Array>
          </mxGeometry>
        </mxCell>
        <mxCell id="Koqa_a8wpF1dFrQe2JMi-328" value="if level 200" style="rhombus;whiteSpace=wrap;html=1;" vertex="1" parent="1">
          <mxGeometry x="480" y="590" width="150" height="150" as="geometry" />
        </mxCell>
        <mxCell id="Koqa_a8wpF1dFrQe2JMi-329" value="" style="edgeStyle=orthogonalEdgeStyle;rounded=0;orthogonalLoop=1;jettySize=auto;html=1;" edge="1" parent="1" source="Koqa_a8wpF1dFrQe2JMi-304" target="Koqa_a8wpF1dFrQe2JMi-328">
          <mxGeometry relative="1" as="geometry" />
        </mxCell>
        <mxCell id="Koqa_a8wpF1dFrQe2JMi-331" value="&lt;span id=&quot;docs-internal-guid-cca55d39-7fff-041b-8b20-c2f213dc35d5&quot;&gt;&lt;span style=&quot;font-size: 11pt; font-family: Arial, sans-serif; background-color: transparent; font-variant-numeric: normal; font-variant-east-asian: normal; font-variant-alternates: normal; font-variant-position: normal; vertical-align: baseline; white-space-collapse: preserve;&quot;&gt;&quot;This country has The Great Wall&quot;&lt;/span&gt;&lt;/span&gt;" style="shape=parallelogram;perimeter=parallelogramPerimeter;whiteSpace=wrap;html=1;fixedSize=1;" vertex="1" parent="1">
          <mxGeometry x="280" y="760" width="190" height="90" as="geometry" />
        </mxCell>
        <mxCell id="Koqa_a8wpF1dFrQe2JMi-332" value="" style="edgeStyle=orthogonalEdgeStyle;rounded=0;orthogonalLoop=1;jettySize=auto;html=1;" edge="1" parent="1" source="Koqa_a8wpF1dFrQe2JMi-328" target="Koqa_a8wpF1dFrQe2JMi-331">
          <mxGeometry relative="1" as="geometry" />
        </mxCell>
        <mxCell id="Koqa_a8wpF1dFrQe2JMi-334" value="&quot;please enter answer&quot;" style="shape=parallelogram;perimeter=parallelogramPerimeter;whiteSpace=wrap;html=1;fixedSize=1;" vertex="1" parent="1">
          <mxGeometry x="285" y="900" width="180" height="90" as="geometry" />
        </mxCell>
        <mxCell id="Koqa_a8wpF1dFrQe2JMi-335" value="" style="edgeStyle=orthogonalEdgeStyle;rounded=0;orthogonalLoop=1;jettySize=auto;html=1;" edge="1" parent="1" source="Koqa_a8wpF1dFrQe2JMi-331" target="Koqa_a8wpF1dFrQe2JMi-334">
          <mxGeometry relative="1" as="geometry" />
        </mxCell>
        <mxCell id="Koqa_a8wpF1dFrQe2JMi-336" value="if China" style="rhombus;whiteSpace=wrap;html=1;" vertex="1" parent="1">
          <mxGeometry x="310" y="1070" width="130" height="130" as="geometry" />
        </mxCell>
        <mxCell id="Koqa_a8wpF1dFrQe2JMi-337" value="" style="edgeStyle=orthogonalEdgeStyle;rounded=0;orthogonalLoop=1;jettySize=auto;html=1;" edge="1" parent="1" source="Koqa_a8wpF1dFrQe2JMi-334" target="Koqa_a8wpF1dFrQe2JMi-336">
          <mxGeometry relative="1" as="geometry" />
        </mxCell>
        <mxCell id="Koqa_a8wpF1dFrQe2JMi-338" value="correct" style="shape=parallelogram;perimeter=parallelogramPerimeter;whiteSpace=wrap;html=1;fixedSize=1;" vertex="1" parent="1">
          <mxGeometry x="-10" y="1230" width="180" height="80" as="geometry" />
        </mxCell>
        <mxCell id="Koqa_a8wpF1dFrQe2JMi-339" value="" style="edgeStyle=orthogonalEdgeStyle;rounded=0;orthogonalLoop=1;jettySize=auto;html=1;" edge="1" parent="1" source="Koqa_a8wpF1dFrQe2JMi-336" target="Koqa_a8wpF1dFrQe2JMi-338">
          <mxGeometry relative="1" as="geometry" />
        </mxCell>
        <mxCell id="Koqa_a8wpF1dFrQe2JMi-340" value="yes" style="text;html=1;align=center;verticalAlign=middle;resizable=0;points=[];autosize=1;strokeColor=none;fillColor=none;" vertex="1" parent="1">
          <mxGeometry x="170" y="1098" width="40" height="30" as="geometry" />
        </mxCell>
        <mxCell id="Koqa_a8wpF1dFrQe2JMi-341" value="incorrect" style="shape=parallelogram;perimeter=parallelogramPerimeter;whiteSpace=wrap;html=1;fixedSize=1;" vertex="1" parent="1">
          <mxGeometry x="465" y="1235" width="200" height="70" as="geometry" />
        </mxCell>
        <mxCell id="Koqa_a8wpF1dFrQe2JMi-342" value="" style="edgeStyle=orthogonalEdgeStyle;rounded=0;orthogonalLoop=1;jettySize=auto;html=1;" edge="1" parent="1" source="Koqa_a8wpF1dFrQe2JMi-336" target="Koqa_a8wpF1dFrQe2JMi-341">
          <mxGeometry relative="1" as="geometry" />
        </mxCell>
        <mxCell id="Koqa_a8wpF1dFrQe2JMi-343" value="no" style="text;html=1;align=center;verticalAlign=middle;resizable=0;points=[];autosize=1;strokeColor=none;fillColor=none;" vertex="1" parent="1">
          <mxGeometry x="510" y="1098" width="40" height="30" as="geometry" />
        </mxCell>
        <mxCell id="Koqa_a8wpF1dFrQe2JMi-347" value="if level 300" style="rhombus;whiteSpace=wrap;html=1;" vertex="1" parent="1">
          <mxGeometry x="940" y="750" width="150" height="150" as="geometry" />
        </mxCell>
        <mxCell id="Koqa_a8wpF1dFrQe2JMi-348" value="" style="edgeStyle=orthogonalEdgeStyle;rounded=0;orthogonalLoop=1;jettySize=auto;html=1;" edge="1" parent="1" source="Koqa_a8wpF1dFrQe2JMi-328" target="Koqa_a8wpF1dFrQe2JMi-347">
          <mxGeometry relative="1" as="geometry" />
        </mxCell>
        <mxCell id="Koqa_a8wpF1dFrQe2JMi-349" value="no" style="text;html=1;align=center;verticalAlign=middle;resizable=0;points=[];autosize=1;strokeColor=none;fillColor=none;" vertex="1" parent="1">
          <mxGeometry x="350" y="458" width="40" height="30" as="geometry" />
        </mxCell>
        <mxCell id="Koqa_a8wpF1dFrQe2JMi-350" value="yes" style="text;html=1;align=center;verticalAlign=middle;resizable=0;points=[];autosize=1;strokeColor=none;fillColor=none;" vertex="1" parent="1">
          <mxGeometry x="400" y="638" width="40" height="30" as="geometry" />
        </mxCell>
        <mxCell id="Koqa_a8wpF1dFrQe2JMi-351" value="no" style="text;html=1;align=center;verticalAlign=middle;resizable=0;points=[];autosize=1;strokeColor=none;fillColor=none;" vertex="1" parent="1">
          <mxGeometry x="710" y="638" width="40" height="30" as="geometry" />
        </mxCell>
        <mxCell id="Koqa_a8wpF1dFrQe2JMi-352" value="&quot;&lt;span id=&quot;docs-internal-guid-614d801e-7fff-22a4-cdff-dc808d017cf4&quot;&gt;&lt;span style=&quot;font-size: 11pt; font-family: Arial, sans-serif; background-color: transparent; font-variant-numeric: normal; font-variant-east-asian: normal; font-variant-alternates: normal; font-variant-position: normal; vertical-align: baseline; white-space-collapse: preserve;&quot;&gt;This country has Mt. Everest&quot;&lt;/span&gt;&lt;/span&gt;" style="shape=parallelogram;perimeter=parallelogramPerimeter;whiteSpace=wrap;html=1;fixedSize=1;" vertex="1" parent="1">
          <mxGeometry x="680" y="940" width="210" height="100" as="geometry" />
        </mxCell>
        <mxCell id="Koqa_a8wpF1dFrQe2JMi-353" value="" style="edgeStyle=orthogonalEdgeStyle;rounded=0;orthogonalLoop=1;jettySize=auto;html=1;" edge="1" parent="1" source="Koqa_a8wpF1dFrQe2JMi-347" target="Koqa_a8wpF1dFrQe2JMi-352">
          <mxGeometry relative="1" as="geometry" />
        </mxCell>
        <mxCell id="Koqa_a8wpF1dFrQe2JMi-354" value="yes" style="text;html=1;align=center;verticalAlign=middle;resizable=0;points=[];autosize=1;strokeColor=none;fillColor=none;" vertex="1" parent="1">
          <mxGeometry x="850" y="798" width="40" height="30" as="geometry" />
        </mxCell>
        <mxCell id="Koqa_a8wpF1dFrQe2JMi-355" value="&quot;please enter answer&quot;" style="shape=parallelogram;perimeter=parallelogramPerimeter;whiteSpace=wrap;html=1;fixedSize=1;" vertex="1" parent="1">
          <mxGeometry x="685" y="1120" width="200" height="100" as="geometry" />
        </mxCell>
        <mxCell id="Koqa_a8wpF1dFrQe2JMi-356" value="" style="edgeStyle=orthogonalEdgeStyle;rounded=0;orthogonalLoop=1;jettySize=auto;html=1;" edge="1" parent="1" source="Koqa_a8wpF1dFrQe2JMi-352" target="Koqa_a8wpF1dFrQe2JMi-355">
          <mxGeometry relative="1" as="geometry" />
        </mxCell>
        <mxCell id="Koqa_a8wpF1dFrQe2JMi-357" value="if Nepal" style="rhombus;whiteSpace=wrap;html=1;" vertex="1" parent="1">
          <mxGeometry x="697.5" y="1305" width="175" height="150" as="geometry" />
        </mxCell>
        <mxCell id="Koqa_a8wpF1dFrQe2JMi-358" value="" style="edgeStyle=orthogonalEdgeStyle;rounded=0;orthogonalLoop=1;jettySize=auto;html=1;" edge="1" parent="1" source="Koqa_a8wpF1dFrQe2JMi-355" target="Koqa_a8wpF1dFrQe2JMi-357">
          <mxGeometry relative="1" as="geometry" />
        </mxCell>
        <mxCell id="Koqa_a8wpF1dFrQe2JMi-359" value="correct" style="shape=parallelogram;perimeter=parallelogramPerimeter;whiteSpace=wrap;html=1;fixedSize=1;" vertex="1" parent="1">
          <mxGeometry x="380" y="1470" width="212.5" height="85" as="geometry" />
        </mxCell>
        <mxCell id="Koqa_a8wpF1dFrQe2JMi-360" value="" style="edgeStyle=orthogonalEdgeStyle;rounded=0;orthogonalLoop=1;jettySize=auto;html=1;" edge="1" parent="1" source="Koqa_a8wpF1dFrQe2JMi-357" target="Koqa_a8wpF1dFrQe2JMi-359">
          <mxGeometry relative="1" as="geometry" />
        </mxCell>
        <mxCell id="Koqa_a8wpF1dFrQe2JMi-361" value="yes" style="text;html=1;align=center;verticalAlign=middle;resizable=0;points=[];autosize=1;strokeColor=none;fillColor=none;" vertex="1" parent="1">
          <mxGeometry x="580" y="1348" width="40" height="30" as="geometry" />
        </mxCell>
        <mxCell id="Koqa_a8wpF1dFrQe2JMi-362" value="incorrect" style="shape=parallelogram;perimeter=parallelogramPerimeter;whiteSpace=wrap;html=1;fixedSize=1;" vertex="1" parent="1">
          <mxGeometry x="950" y="1470" width="192.5" height="85" as="geometry" />
        </mxCell>
        <mxCell id="Koqa_a8wpF1dFrQe2JMi-363" value="" style="edgeStyle=orthogonalEdgeStyle;rounded=0;orthogonalLoop=1;jettySize=auto;html=1;" edge="1" parent="1" source="Koqa_a8wpF1dFrQe2JMi-357" target="Koqa_a8wpF1dFrQe2JMi-362">
          <mxGeometry relative="1" as="geometry" />
        </mxCell>
        <mxCell id="Koqa_a8wpF1dFrQe2JMi-364" value="no" style="text;html=1;align=center;verticalAlign=middle;resizable=0;points=[];autosize=1;strokeColor=none;fillColor=none;" vertex="1" parent="1">
          <mxGeometry x="920" y="1348" width="40" height="30" as="geometry" />
        </mxCell>
        <mxCell id="Koqa_a8wpF1dFrQe2JMi-365" value="&quot;error&quot;&lt;div&gt;&quot;please only enter a number 100, 200, or 300&quot;&lt;/div&gt;" style="shape=parallelogram;perimeter=parallelogramPerimeter;whiteSpace=wrap;html=1;fixedSize=1;" vertex="1" parent="1">
          <mxGeometry x="1190" y="930" width="200" height="90" as="geometry" />
        </mxCell>
        <mxCell id="Koqa_a8wpF1dFrQe2JMi-366" value="" style="edgeStyle=orthogonalEdgeStyle;rounded=0;orthogonalLoop=1;jettySize=auto;html=1;" edge="1" parent="1" source="Koqa_a8wpF1dFrQe2JMi-347" target="Koqa_a8wpF1dFrQe2JMi-365">
          <mxGeometry relative="1" as="geometry" />
        </mxCell>
        <mxCell id="Koqa_a8wpF1dFrQe2JMi-367" value="no" style="text;html=1;align=center;verticalAlign=middle;resizable=0;points=[];autosize=1;strokeColor=none;fillColor=none;" vertex="1" parent="1">
          <mxGeometry x="1150" y="798" width="40" height="30" as="geometry" />
        </mxCell>
        <mxCell id="Koqa_a8wpF1dFrQe2JMi-728" value="please choose level&lt;div&gt;100, 200, or 300&lt;/div&gt;" style="shape=parallelogram;perimeter=parallelogramPerimeter;whiteSpace=wrap;html=1;fixedSize=1;" vertex="1" parent="1">
          <mxGeometry x="2150" y="670" width="160" height="70" as="geometry" />
        </mxCell>
        <mxCell id="Koqa_a8wpF1dFrQe2JMi-729" value="if level 100" style="rhombus;whiteSpace=wrap;html=1;" vertex="1" parent="1">
          <mxGeometry x="2152.5" y="780" width="155" height="150" as="geometry" />
        </mxCell>
        <mxCell id="Koqa_a8wpF1dFrQe2JMi-730" value="" style="edgeStyle=orthogonalEdgeStyle;rounded=0;orthogonalLoop=1;jettySize=auto;html=1;" edge="1" parent="1" source="Koqa_a8wpF1dFrQe2JMi-728" target="Koqa_a8wpF1dFrQe2JMi-729">
          <mxGeometry relative="1" as="geometry" />
        </mxCell>
        <mxCell id="Koqa_a8wpF1dFrQe2JMi-731" value="&quot;This state has the Indy 500&quot;" style="shape=parallelogram;perimeter=parallelogramPerimeter;whiteSpace=wrap;html=1;fixedSize=1;" vertex="1" parent="1">
          <mxGeometry x="1957.49" y="940" width="192.5" height="70" as="geometry" />
        </mxCell>
        <mxCell id="Koqa_a8wpF1dFrQe2JMi-732" value="" style="edgeStyle=orthogonalEdgeStyle;rounded=0;orthogonalLoop=1;jettySize=auto;html=1;" edge="1" parent="1" source="Koqa_a8wpF1dFrQe2JMi-729" target="Koqa_a8wpF1dFrQe2JMi-731">
          <mxGeometry relative="1" as="geometry" />
        </mxCell>
        <mxCell id="Koqa_a8wpF1dFrQe2JMi-733" value="yes" style="text;html=1;align=center;verticalAlign=middle;resizable=0;points=[];autosize=1;strokeColor=none;fillColor=none;" vertex="1" parent="1">
          <mxGeometry x="2080" y="820" width="40" height="30" as="geometry" />
        </mxCell>
        <mxCell id="Koqa_a8wpF1dFrQe2JMi-734" value="if Indiana" style="rhombus;whiteSpace=wrap;html=1;" vertex="1" parent="1">
          <mxGeometry x="1998.12" y="1200" width="111.25" height="110" as="geometry" />
        </mxCell>
        <mxCell id="Koqa_a8wpF1dFrQe2JMi-735" value="correct" style="shape=parallelogram;perimeter=parallelogramPerimeter;whiteSpace=wrap;html=1;fixedSize=1;" vertex="1" parent="1">
          <mxGeometry x="1780" y="1330" width="181.87" height="70" as="geometry" />
        </mxCell>
        <mxCell id="Koqa_a8wpF1dFrQe2JMi-736" value="" style="edgeStyle=orthogonalEdgeStyle;rounded=0;orthogonalLoop=1;jettySize=auto;html=1;" edge="1" parent="1" source="Koqa_a8wpF1dFrQe2JMi-734" target="Koqa_a8wpF1dFrQe2JMi-735">
          <mxGeometry relative="1" as="geometry" />
        </mxCell>
        <mxCell id="Koqa_a8wpF1dFrQe2JMi-737" value="incorrect" style="shape=parallelogram;perimeter=parallelogramPerimeter;whiteSpace=wrap;html=1;fixedSize=1;" vertex="1" parent="1">
          <mxGeometry x="2140" y="1330" width="180" height="70" as="geometry" />
        </mxCell>
        <mxCell id="Koqa_a8wpF1dFrQe2JMi-738" value="" style="edgeStyle=orthogonalEdgeStyle;rounded=0;orthogonalLoop=1;jettySize=auto;html=1;" edge="1" parent="1" source="Koqa_a8wpF1dFrQe2JMi-734" target="Koqa_a8wpF1dFrQe2JMi-737">
          <mxGeometry relative="1" as="geometry" />
        </mxCell>
        <mxCell id="Koqa_a8wpF1dFrQe2JMi-739" value="yes" style="text;html=1;align=center;verticalAlign=middle;resizable=0;points=[];autosize=1;strokeColor=none;fillColor=none;" vertex="1" parent="1">
          <mxGeometry x="1931.87" y="1230" width="40" height="30" as="geometry" />
        </mxCell>
        <mxCell id="Koqa_a8wpF1dFrQe2JMi-740" value="no" style="text;html=1;align=center;verticalAlign=middle;resizable=0;points=[];autosize=1;strokeColor=none;fillColor=none;" vertex="1" parent="1">
          <mxGeometry x="2149.99" y="1230" width="40" height="30" as="geometry" />
        </mxCell>
        <mxCell id="Koqa_a8wpF1dFrQe2JMi-741" value="&quot;please enter answer&quot;" style="shape=parallelogram;perimeter=parallelogramPerimeter;whiteSpace=wrap;html=1;fixedSize=1;" vertex="1" parent="1">
          <mxGeometry x="1983.74" y="1070" width="140" height="70" as="geometry" />
        </mxCell>
        <mxCell id="Koqa_a8wpF1dFrQe2JMi-742" value="" style="edgeStyle=orthogonalEdgeStyle;rounded=0;orthogonalLoop=1;jettySize=auto;html=1;" edge="1" parent="1" source="Koqa_a8wpF1dFrQe2JMi-731" target="Koqa_a8wpF1dFrQe2JMi-741">
          <mxGeometry relative="1" as="geometry" />
        </mxCell>
        <mxCell id="Koqa_a8wpF1dFrQe2JMi-743" value="" style="endArrow=classic;html=1;rounded=0;" edge="1" parent="1">
          <mxGeometry width="50" height="50" relative="1" as="geometry">
            <mxPoint x="2053" y="1140" as="sourcePoint" />
            <mxPoint x="2053.03" y="1200" as="targetPoint" />
            <Array as="points">
              <mxPoint x="2053.03" y="1160" />
            </Array>
          </mxGeometry>
        </mxCell>
        <mxCell id="Koqa_a8wpF1dFrQe2JMi-744" value="if level 200" style="rhombus;whiteSpace=wrap;html=1;" vertex="1" parent="1">
          <mxGeometry x="2540" y="950" width="150" height="150" as="geometry" />
        </mxCell>
        <mxCell id="Koqa_a8wpF1dFrQe2JMi-745" value="" style="edgeStyle=orthogonalEdgeStyle;rounded=0;orthogonalLoop=1;jettySize=auto;html=1;" edge="1" parent="1" source="Koqa_a8wpF1dFrQe2JMi-729" target="Koqa_a8wpF1dFrQe2JMi-744">
          <mxGeometry relative="1" as="geometry" />
        </mxCell>
        <mxCell id="Koqa_a8wpF1dFrQe2JMi-746" value="&lt;span id=&quot;docs-internal-guid-cca55d39-7fff-041b-8b20-c2f213dc35d5&quot;&gt;&lt;span style=&quot;font-size: 11pt; font-family: Arial, sans-serif; background-color: transparent; font-variant-numeric: normal; font-variant-east-asian: normal; font-variant-alternates: normal; font-variant-position: normal; vertical-align: baseline; white-space-collapse: preserve;&quot;&gt;&quot;This state has Disney World&lt;/span&gt;&lt;/span&gt;" style="shape=parallelogram;perimeter=parallelogramPerimeter;whiteSpace=wrap;html=1;fixedSize=1;" vertex="1" parent="1">
          <mxGeometry x="2340" y="1120" width="190" height="90" as="geometry" />
        </mxCell>
        <mxCell id="Koqa_a8wpF1dFrQe2JMi-747" value="" style="edgeStyle=orthogonalEdgeStyle;rounded=0;orthogonalLoop=1;jettySize=auto;html=1;" edge="1" parent="1" source="Koqa_a8wpF1dFrQe2JMi-744" target="Koqa_a8wpF1dFrQe2JMi-746">
          <mxGeometry relative="1" as="geometry" />
        </mxCell>
        <mxCell id="Koqa_a8wpF1dFrQe2JMi-748" value="&quot;please enter answer&quot;" style="shape=parallelogram;perimeter=parallelogramPerimeter;whiteSpace=wrap;html=1;fixedSize=1;" vertex="1" parent="1">
          <mxGeometry x="2345" y="1260" width="180" height="90" as="geometry" />
        </mxCell>
        <mxCell id="Koqa_a8wpF1dFrQe2JMi-749" value="" style="edgeStyle=orthogonalEdgeStyle;rounded=0;orthogonalLoop=1;jettySize=auto;html=1;" edge="1" parent="1" source="Koqa_a8wpF1dFrQe2JMi-746" target="Koqa_a8wpF1dFrQe2JMi-748">
          <mxGeometry relative="1" as="geometry" />
        </mxCell>
        <mxCell id="Koqa_a8wpF1dFrQe2JMi-750" value="if Florida" style="rhombus;whiteSpace=wrap;html=1;" vertex="1" parent="1">
          <mxGeometry x="2370" y="1430" width="130" height="130" as="geometry" />
        </mxCell>
        <mxCell id="Koqa_a8wpF1dFrQe2JMi-751" value="" style="edgeStyle=orthogonalEdgeStyle;rounded=0;orthogonalLoop=1;jettySize=auto;html=1;" edge="1" parent="1" source="Koqa_a8wpF1dFrQe2JMi-748" target="Koqa_a8wpF1dFrQe2JMi-750">
          <mxGeometry relative="1" as="geometry" />
        </mxCell>
        <mxCell id="Koqa_a8wpF1dFrQe2JMi-752" value="correct" style="shape=parallelogram;perimeter=parallelogramPerimeter;whiteSpace=wrap;html=1;fixedSize=1;" vertex="1" parent="1">
          <mxGeometry x="2050" y="1590" width="180" height="80" as="geometry" />
        </mxCell>
        <mxCell id="Koqa_a8wpF1dFrQe2JMi-753" value="" style="edgeStyle=orthogonalEdgeStyle;rounded=0;orthogonalLoop=1;jettySize=auto;html=1;" edge="1" parent="1" source="Koqa_a8wpF1dFrQe2JMi-750" target="Koqa_a8wpF1dFrQe2JMi-752">
          <mxGeometry relative="1" as="geometry" />
        </mxCell>
        <mxCell id="Koqa_a8wpF1dFrQe2JMi-754" value="yes" style="text;html=1;align=center;verticalAlign=middle;resizable=0;points=[];autosize=1;strokeColor=none;fillColor=none;" vertex="1" parent="1">
          <mxGeometry x="2230" y="1458" width="40" height="30" as="geometry" />
        </mxCell>
        <mxCell id="Koqa_a8wpF1dFrQe2JMi-755" value="incorrect" style="shape=parallelogram;perimeter=parallelogramPerimeter;whiteSpace=wrap;html=1;fixedSize=1;" vertex="1" parent="1">
          <mxGeometry x="2525" y="1595" width="200" height="70" as="geometry" />
        </mxCell>
        <mxCell id="Koqa_a8wpF1dFrQe2JMi-756" value="" style="edgeStyle=orthogonalEdgeStyle;rounded=0;orthogonalLoop=1;jettySize=auto;html=1;" edge="1" parent="1" source="Koqa_a8wpF1dFrQe2JMi-750" target="Koqa_a8wpF1dFrQe2JMi-755">
          <mxGeometry relative="1" as="geometry" />
        </mxCell>
        <mxCell id="Koqa_a8wpF1dFrQe2JMi-757" value="no" style="text;html=1;align=center;verticalAlign=middle;resizable=0;points=[];autosize=1;strokeColor=none;fillColor=none;" vertex="1" parent="1">
          <mxGeometry x="2570" y="1458" width="40" height="30" as="geometry" />
        </mxCell>
        <mxCell id="Koqa_a8wpF1dFrQe2JMi-758" value="if level 300" style="rhombus;whiteSpace=wrap;html=1;" vertex="1" parent="1">
          <mxGeometry x="3000" y="1110" width="150" height="150" as="geometry" />
        </mxCell>
        <mxCell id="Koqa_a8wpF1dFrQe2JMi-759" value="" style="edgeStyle=orthogonalEdgeStyle;rounded=0;orthogonalLoop=1;jettySize=auto;html=1;" edge="1" parent="1" source="Koqa_a8wpF1dFrQe2JMi-744" target="Koqa_a8wpF1dFrQe2JMi-758">
          <mxGeometry relative="1" as="geometry" />
        </mxCell>
        <mxCell id="Koqa_a8wpF1dFrQe2JMi-760" value="no" style="text;html=1;align=center;verticalAlign=middle;resizable=0;points=[];autosize=1;strokeColor=none;fillColor=none;" vertex="1" parent="1">
          <mxGeometry x="2410" y="818" width="40" height="30" as="geometry" />
        </mxCell>
        <mxCell id="Koqa_a8wpF1dFrQe2JMi-761" value="yes" style="text;html=1;align=center;verticalAlign=middle;resizable=0;points=[];autosize=1;strokeColor=none;fillColor=none;" vertex="1" parent="1">
          <mxGeometry x="2460" y="998" width="40" height="30" as="geometry" />
        </mxCell>
        <mxCell id="Koqa_a8wpF1dFrQe2JMi-762" value="no" style="text;html=1;align=center;verticalAlign=middle;resizable=0;points=[];autosize=1;strokeColor=none;fillColor=none;" vertex="1" parent="1">
          <mxGeometry x="2770" y="998" width="40" height="30" as="geometry" />
        </mxCell>
        <mxCell id="Koqa_a8wpF1dFrQe2JMi-763" value="&quot;This state has the St. Louis Arch&quot;" style="shape=parallelogram;perimeter=parallelogramPerimeter;whiteSpace=wrap;html=1;fixedSize=1;" vertex="1" parent="1">
          <mxGeometry x="2740" y="1300" width="210" height="100" as="geometry" />
        </mxCell>
        <mxCell id="Koqa_a8wpF1dFrQe2JMi-764" value="" style="edgeStyle=orthogonalEdgeStyle;rounded=0;orthogonalLoop=1;jettySize=auto;html=1;" edge="1" parent="1" source="Koqa_a8wpF1dFrQe2JMi-758" target="Koqa_a8wpF1dFrQe2JMi-763">
          <mxGeometry relative="1" as="geometry" />
        </mxCell>
        <mxCell id="Koqa_a8wpF1dFrQe2JMi-765" value="yes" style="text;html=1;align=center;verticalAlign=middle;resizable=0;points=[];autosize=1;strokeColor=none;fillColor=none;" vertex="1" parent="1">
          <mxGeometry x="2910" y="1158" width="40" height="30" as="geometry" />
        </mxCell>
        <mxCell id="Koqa_a8wpF1dFrQe2JMi-766" value="&quot;please enter answer&quot;" style="shape=parallelogram;perimeter=parallelogramPerimeter;whiteSpace=wrap;html=1;fixedSize=1;" vertex="1" parent="1">
          <mxGeometry x="2745" y="1480" width="200" height="100" as="geometry" />
        </mxCell>
        <mxCell id="Koqa_a8wpF1dFrQe2JMi-767" value="" style="edgeStyle=orthogonalEdgeStyle;rounded=0;orthogonalLoop=1;jettySize=auto;html=1;" edge="1" parent="1" source="Koqa_a8wpF1dFrQe2JMi-763" target="Koqa_a8wpF1dFrQe2JMi-766">
          <mxGeometry relative="1" as="geometry" />
        </mxCell>
        <mxCell id="Koqa_a8wpF1dFrQe2JMi-768" value="if Missouri" style="rhombus;whiteSpace=wrap;html=1;" vertex="1" parent="1">
          <mxGeometry x="2757.5" y="1665" width="175" height="150" as="geometry" />
        </mxCell>
        <mxCell id="Koqa_a8wpF1dFrQe2JMi-769" value="" style="edgeStyle=orthogonalEdgeStyle;rounded=0;orthogonalLoop=1;jettySize=auto;html=1;" edge="1" parent="1" source="Koqa_a8wpF1dFrQe2JMi-766" target="Koqa_a8wpF1dFrQe2JMi-768">
          <mxGeometry relative="1" as="geometry" />
        </mxCell>
        <mxCell id="Koqa_a8wpF1dFrQe2JMi-770" value="correct" style="shape=parallelogram;perimeter=parallelogramPerimeter;whiteSpace=wrap;html=1;fixedSize=1;" vertex="1" parent="1">
          <mxGeometry x="2440" y="1830" width="212.5" height="85" as="geometry" />
        </mxCell>
        <mxCell id="Koqa_a8wpF1dFrQe2JMi-771" value="" style="edgeStyle=orthogonalEdgeStyle;rounded=0;orthogonalLoop=1;jettySize=auto;html=1;" edge="1" parent="1" source="Koqa_a8wpF1dFrQe2JMi-768" target="Koqa_a8wpF1dFrQe2JMi-770">
          <mxGeometry relative="1" as="geometry" />
        </mxCell>
        <mxCell id="Koqa_a8wpF1dFrQe2JMi-772" value="yes" style="text;html=1;align=center;verticalAlign=middle;resizable=0;points=[];autosize=1;strokeColor=none;fillColor=none;" vertex="1" parent="1">
          <mxGeometry x="2640" y="1708" width="40" height="30" as="geometry" />
        </mxCell>
        <mxCell id="Koqa_a8wpF1dFrQe2JMi-773" value="incorrect" style="shape=parallelogram;perimeter=parallelogramPerimeter;whiteSpace=wrap;html=1;fixedSize=1;" vertex="1" parent="1">
          <mxGeometry x="3010" y="1830" width="192.5" height="85" as="geometry" />
        </mxCell>
        <mxCell id="Koqa_a8wpF1dFrQe2JMi-774" value="" style="edgeStyle=orthogonalEdgeStyle;rounded=0;orthogonalLoop=1;jettySize=auto;html=1;" edge="1" parent="1" source="Koqa_a8wpF1dFrQe2JMi-768" target="Koqa_a8wpF1dFrQe2JMi-773">
          <mxGeometry relative="1" as="geometry" />
        </mxCell>
        <mxCell id="Koqa_a8wpF1dFrQe2JMi-775" value="no" style="text;html=1;align=center;verticalAlign=middle;resizable=0;points=[];autosize=1;strokeColor=none;fillColor=none;" vertex="1" parent="1">
          <mxGeometry x="2980" y="1708" width="40" height="30" as="geometry" />
        </mxCell>
        <mxCell id="Koqa_a8wpF1dFrQe2JMi-776" value="&quot;error&quot;&lt;div&gt;&quot;please only enter a number 100, 200, or 300&quot;&lt;/div&gt;" style="shape=parallelogram;perimeter=parallelogramPerimeter;whiteSpace=wrap;html=1;fixedSize=1;" vertex="1" parent="1">
          <mxGeometry x="3250" y="1290" width="200" height="90" as="geometry" />
        </mxCell>
        <mxCell id="Koqa_a8wpF1dFrQe2JMi-777" value="" style="edgeStyle=orthogonalEdgeStyle;rounded=0;orthogonalLoop=1;jettySize=auto;html=1;" edge="1" parent="1" source="Koqa_a8wpF1dFrQe2JMi-758" target="Koqa_a8wpF1dFrQe2JMi-776">
          <mxGeometry relative="1" as="geometry" />
        </mxCell>
        <mxCell id="Koqa_a8wpF1dFrQe2JMi-778" value="no" style="text;html=1;align=center;verticalAlign=middle;resizable=0;points=[];autosize=1;strokeColor=none;fillColor=none;" vertex="1" parent="1">
          <mxGeometry x="3210" y="1158" width="40" height="30" as="geometry" />
        </mxCell>
        <mxCell id="Koqa_a8wpF1dFrQe2JMi-779" value="if category 2" style="rhombus;whiteSpace=wrap;html=1;" vertex="1" parent="1">
          <mxGeometry x="2450" y="408" width="250.01" height="230" as="geometry" />
        </mxCell>
        <mxCell id="Koqa_a8wpF1dFrQe2JMi-780" value="" style="edgeStyle=orthogonalEdgeStyle;rounded=0;orthogonalLoop=1;jettySize=auto;html=1;" edge="1" parent="1" source="Koqa_a8wpF1dFrQe2JMi-5" target="Koqa_a8wpF1dFrQe2JMi-779">
          <mxGeometry relative="1" as="geometry" />
        </mxCell>
        <mxCell id="Koqa_a8wpF1dFrQe2JMi-782" value="" style="endArrow=none;html=1;rounded=0;" edge="1" parent="1" source="Koqa_a8wpF1dFrQe2JMi-779">
          <mxGeometry width="50" height="50" relative="1" as="geometry">
            <mxPoint x="2379.289321881345" y="573" as="sourcePoint" />
            <mxPoint x="2230" y="523" as="targetPoint" />
          </mxGeometry>
        </mxCell>
        <mxCell id="Koqa_a8wpF1dFrQe2JMi-783" value="" style="endArrow=classic;html=1;rounded=0;entryX=0.5;entryY=0;entryDx=0;entryDy=0;" edge="1" parent="1" target="Koqa_a8wpF1dFrQe2JMi-728">
          <mxGeometry width="50" height="50" relative="1" as="geometry">
            <mxPoint x="2230" y="520" as="sourcePoint" />
            <mxPoint x="2270" y="570" as="targetPoint" />
          </mxGeometry>
        </mxCell>
        <mxCell id="Koqa_a8wpF1dFrQe2JMi-784" value="yes" style="text;html=1;align=center;verticalAlign=middle;resizable=0;points=[];autosize=1;strokeColor=none;fillColor=none;" vertex="1" parent="1">
          <mxGeometry x="2330" y="488" width="40" height="30" as="geometry" />
        </mxCell>
        <mxCell id="Koqa_a8wpF1dFrQe2JMi-785" value="&quot;error&quot;&lt;div&gt;&quot;please only enter number 1 or 2&quot;&lt;/div&gt;" style="shape=parallelogram;perimeter=parallelogramPerimeter;whiteSpace=wrap;html=1;fixedSize=1;" vertex="1" parent="1">
          <mxGeometry x="2780.01" y="650" width="219.99" height="110" as="geometry" />
        </mxCell>
        <mxCell id="Koqa_a8wpF1dFrQe2JMi-786" value="" style="edgeStyle=orthogonalEdgeStyle;rounded=0;orthogonalLoop=1;jettySize=auto;html=1;" edge="1" parent="1" source="Koqa_a8wpF1dFrQe2JMi-779" target="Koqa_a8wpF1dFrQe2JMi-785">
          <mxGeometry relative="1" as="geometry" />
        </mxCell>
        <mxCell id="Koqa_a8wpF1dFrQe2JMi-787" value="no" style="text;html=1;align=center;verticalAlign=middle;resizable=0;points=[];autosize=1;strokeColor=none;fillColor=none;" vertex="1" parent="1">
          <mxGeometry x="2760" y="488" width="40" height="30" as="geometry" />
        </mxCell>
        <mxCell id="Koqa_a8wpF1dFrQe2JMi-790" value="" style="endArrow=none;html=1;rounded=0;" edge="1" parent="1" source="Koqa_a8wpF1dFrQe2JMi-785">
          <mxGeometry width="50" height="50" relative="1" as="geometry">
            <mxPoint x="3000" y="755" as="sourcePoint" />
            <mxPoint x="3160" y="705" as="targetPoint" />
          </mxGeometry>
        </mxCell>
        <mxCell id="Koqa_a8wpF1dFrQe2JMi-791" value="" style="endArrow=none;html=1;rounded=0;" edge="1" parent="1">
          <mxGeometry width="50" height="50" relative="1" as="geometry">
            <mxPoint x="3150" y="700" as="sourcePoint" />
            <mxPoint x="3150" y="40" as="targetPoint" />
          </mxGeometry>
        </mxCell>
        <mxCell id="Koqa_a8wpF1dFrQe2JMi-792" value="" style="endArrow=classic;html=1;rounded=0;" edge="1" parent="1">
          <mxGeometry width="50" height="50" relative="1" as="geometry">
            <mxPoint x="3150" y="40" as="sourcePoint" />
            <mxPoint x="560" y="40" as="targetPoint" />
          </mxGeometry>
        </mxCell>
        <mxCell id="Koqa_a8wpF1dFrQe2JMi-793" value="" style="endArrow=none;html=1;rounded=0;" edge="1" parent="1" source="Koqa_a8wpF1dFrQe2JMi-365">
          <mxGeometry width="50" height="50" relative="1" as="geometry">
            <mxPoint x="1390" y="1025" as="sourcePoint" />
            <mxPoint x="1460.7106781186549" y="975" as="targetPoint" />
          </mxGeometry>
        </mxCell>
        <mxCell id="Koqa_a8wpF1dFrQe2JMi-794" value="" style="endArrow=none;html=1;rounded=0;" edge="1" parent="1">
          <mxGeometry width="50" height="50" relative="1" as="geometry">
            <mxPoint x="1460" y="970" as="sourcePoint" />
            <mxPoint x="1460" y="280" as="targetPoint" />
          </mxGeometry>
        </mxCell>
        <mxCell id="Koqa_a8wpF1dFrQe2JMi-796" value="" style="endArrow=classic;html=1;rounded=0;" edge="1" parent="1">
          <mxGeometry width="50" height="50" relative="1" as="geometry">
            <mxPoint x="1450" y="290" as="sourcePoint" />
            <mxPoint x="170" y="270" as="targetPoint" />
          </mxGeometry>
        </mxCell>
        <mxCell id="Koqa_a8wpF1dFrQe2JMi-797" value="" style="endArrow=none;html=1;rounded=0;exitX=1;exitY=0.5;exitDx=0;exitDy=0;" edge="1" parent="1" source="Koqa_a8wpF1dFrQe2JMi-776">
          <mxGeometry width="50" height="50" relative="1" as="geometry">
            <mxPoint x="3070" y="1080" as="sourcePoint" />
            <mxPoint x="3590" y="1335" as="targetPoint" />
            <Array as="points" />
          </mxGeometry>
        </mxCell>
        <mxCell id="Koqa_a8wpF1dFrQe2JMi-798" value="" style="endArrow=none;html=1;rounded=0;" edge="1" parent="1">
          <mxGeometry width="50" height="50" relative="1" as="geometry">
            <mxPoint x="3610" y="1340" as="sourcePoint" />
            <mxPoint x="3610" y="610" as="targetPoint" />
          </mxGeometry>
        </mxCell>
        <mxCell id="Koqa_a8wpF1dFrQe2JMi-799" value="" style="endArrow=classic;html=1;rounded=0;" edge="1" parent="1">
          <mxGeometry width="50" height="50" relative="1" as="geometry">
            <mxPoint x="3610" y="610" as="sourcePoint" />
            <mxPoint x="2230" y="620" as="targetPoint" />
          </mxGeometry>
        </mxCell>
        <mxCell id="Koqa_a8wpF1dFrQe2JMi-801" value="&quot;Category 1 is countries&lt;div&gt;Category 2 is states&quot;&lt;/div&gt;" style="shape=parallelogram;perimeter=parallelogramPerimeter;whiteSpace=wrap;html=1;fixedSize=1;" vertex="1" parent="1">
          <mxGeometry x="473.75" y="-130" width="157.5" height="80" as="geometry" />
        </mxCell>
        <mxCell id="Koqa_a8wpF1dFrQe2JMi-802" value="" style="edgeStyle=orthogonalEdgeStyle;rounded=0;orthogonalLoop=1;jettySize=auto;html=1;" edge="1" parent="1" source="Koqa_a8wpF1dFrQe2JMi-1" target="Koqa_a8wpF1dFrQe2JMi-801">
          <mxGeometry relative="1" as="geometry" />
        </mxCell>
        <mxCell id="Koqa_a8wpF1dFrQe2JMi-803" value="" style="endArrow=classic;html=1;rounded=0;entryX=0.547;entryY=-0.048;entryDx=0;entryDy=0;entryPerimeter=0;exitX=0.541;exitY=1.013;exitDx=0;exitDy=0;exitPerimeter=0;" edge="1" parent="1" source="Koqa_a8wpF1dFrQe2JMi-801" target="Koqa_a8wpF1dFrQe2JMi-2">
          <mxGeometry width="50" height="50" relative="1" as="geometry">
            <mxPoint x="530" as="sourcePoint" />
            <mxPoint x="580" y="-50" as="targetPoint" />
          </mxGeometry>
        </mxCell>
      </root>
    </mxGraphModel>
  </diagram>
</mxfile>
